<mxfile host="app.diagrams.net" agent="Mozilla/5.0 (Windows NT 10.0; Win64; x64) AppleWebKit/537.36 (KHTML, like Gecko) Chrome/134.0.0.0 Safari/537.36" version="26.2.8">
  <diagram name="Page-1" id="StYZJcCEQKMgn_R7Sx6w">
    <mxGraphModel dx="2068" dy="1111" grid="1" gridSize="10" guides="1" tooltips="1" connect="1" arrows="1" fold="1" page="1" pageScale="1" pageWidth="850" pageHeight="1100" math="0" shadow="0">
      <root>
        <mxCell id="0" />
        <mxCell id="1" parent="0" />
        <mxCell id="P6e8AEhCtGOh2EU1g-Fo-20" value="write back in order, so the only data hazards are RAW.&lt;div&gt;solving this by forwarding and stalling&lt;/div&gt;&lt;div&gt;Given no address prediction unit, predict that branch not taken&lt;/div&gt;" style="rounded=1;whiteSpace=wrap;html=1;" parent="1" vertex="1">
          <mxGeometry x="80" y="70" width="373.5" height="60" as="geometry" />
        </mxCell>
        <mxCell id="Wlrv1BH2EtyuIiHUKAzt-6" value="instr&lt;div&gt;mem&lt;/div&gt;" style="rounded=1;whiteSpace=wrap;html=1;" vertex="1" parent="1">
          <mxGeometry x="290" y="395.5" width="80" height="140" as="geometry" />
        </mxCell>
        <mxCell id="Wlrv1BH2EtyuIiHUKAzt-10" value="" style="shape=trapezoid;perimeter=trapezoidPerimeter;whiteSpace=wrap;html=1;fixedSize=1;rotation=90;" vertex="1" parent="1">
          <mxGeometry x="90" y="460" width="80" height="11" as="geometry" />
        </mxCell>
        <mxCell id="Wlrv1BH2EtyuIiHUKAzt-11" value="CLR&lt;div&gt;EN&lt;/div&gt;" style="rounded=0;whiteSpace=wrap;html=1;rotation=-90;align=right;" vertex="1" parent="1">
          <mxGeometry x="130" y="445.5" width="160" height="40" as="geometry" />
        </mxCell>
        <mxCell id="Wlrv1BH2EtyuIiHUKAzt-12" value="" style="triangle;whiteSpace=wrap;html=1;rotation=-90;" vertex="1" parent="1">
          <mxGeometry x="195" y="510" width="30" height="40" as="geometry" />
        </mxCell>
      </root>
    </mxGraphModel>
  </diagram>
</mxfile>
